# xmcd
#
# Track frame offsets:
#	150
#	26875
#	45287
#	63825
#	81812
#	111862
#	131287
#	148400
#	176575
#
# Disc length: 2601
#
# Revision: 1
# Processed by: cddbd v1.5.1PL0 Copyright (c) Steve Scherf et al.
# Submitted via: CDex 1.51
# Normalized: r0:TDELIM( - ),TSWAP
#
DISCID=760a2709
DTITLE=Various Artist - Trumpet - Jazz Special Selection 32
DYEAR=1900
DGENRE=Jazz
TTITLE0=Louis Armstrong - When the Saints go Marchin'in
TTITLE1=Louis Armstrong - Just One of Those Things
TTITLE2=Roy Eldridge - Honey Hill
TTITLE3=Roy Eldridge - Blue Moon
TTITLE4=Dizzy Gillespie - It Don't Mean a Thing
TTITLE5=Clifford Brown - Take the 'A' Train
TTITLE6=Harry Edison - How Deep is the Ocean
TTITLE7=Nat Adderley - Nearness of You
TTITLE8=Donald Byrd - House of the Rising Sun
EXTD=
EXTT0=
EXTT1=
EXTT2=
EXTT3=
EXTT4=
EXTT5=
EXTT6=
EXTT7=
EXTT8=
PLAYORDER=
